HIERARCHY
ROOT Root
{
  OFFSET 6.90105 11.8871 -0.957331
  CHANNELS 6 Xposition Yposition Zposition Zrotation Xrotation Yrotation
  JOINT Spine
  {
    OFFSET 5.3114 0 0
    CHANNELS 3 Zrotation Xrotation Yrotation
    JOINT Spine1
    {
      OFFSET 2.79004 0 0
      CHANNELS 3 Zrotation Xrotation Yrotation
      JOINT Neck
      {
        OFFSET 1.43377 0 0
        CHANNELS 3 Zrotation Xrotation Yrotation
        JOINT Head
        {
          OFFSET 1.86043 0 0
          CHANNELS 3 Zrotation Xrotation Yrotation
          End Site
          {
            OFFSET 0 0 0
          }
        }
      }
      JOINT LeftArm
      {
        OFFSET 0.0387506 0 2.55754
        CHANNELS 3 Zrotation Xrotation Yrotation
        JOINT LeftForeArm
        {
          OFFSET 4.24845 0 0
          CHANNELS 3 Zrotation Xrotation Yrotation
          JOINT LeftHand
          {
            OFFSET 4.01008 0 0
            CHANNELS 3 Zrotation Xrotation Yrotation
            End Site
            {
              OFFSET 0 0 0
            }
          }
        }
      }
      JOINT RightArm
      {
        OFFSET 0.0387506 0 -2.55754
        CHANNELS 3 Zrotation Xrotation Yrotation
        JOINT RightForeArm
        {
          OFFSET -4.24845 0 0
          CHANNELS 3 Zrotation Xrotation Yrotation
          JOINT RightHand
          {
            OFFSET -4.01009 0 0
            CHANNELS 3 Zrotation Xrotation Yrotation
            End Site
            {
              OFFSET 0 0 0
            }
          }
        }
      }
    }
  }
  JOINT LeftUpLeg
  {
    OFFSET -1.23318 0 2.05692
    CHANNELS 3 Zrotation Xrotation Yrotation
    JOINT LeftLeg
    {
      OFFSET 5.46397 0 0
      CHANNELS 3 Zrotation Xrotation Yrotation
      JOINT LeftFoot
      {
        OFFSET 4.68898 0 0
        CHANNELS 3 Zrotation Xrotation Yrotation
        End Site
        {
          OFFSET 0 0 0
        }
      }
    }
  }
  JOINT RightUpLeg
  {
    OFFSET -1.24454 0 -2.05007
    CHANNELS 3 Zrotation Xrotation Yrotation
    JOINT RightLeg
    {
      OFFSET -5.46397 0 0
      CHANNELS 3 Zrotation Xrotation Yrotation
      JOINT RightFoot
      {
        OFFSET -4.68901 0 0
        CHANNELS 3 Zrotation Xrotation Yrotation
        End Site
        {
          OFFSET 0 0 0
        }
      }
    }
  }
}
MOTION
Frames: 20
Frame Time: 0.0083333
0.0000 0.0000 0.0000 0.0000 90.0000 90.0000 -1.4096 1.3305 1.4959 -1.5207 -0.7302 0.4932 -1.0784 0.2004 1.8275 2.7194 -1.1388 3.6553 -9.7494 -95.2002 -1.1925 4.8377 2.8107 0.1457 1.0570 174.0157 9.4636 115.5141 -94.5067 -1.6727 5.1222 2.9719 0.1892 0.5196 174.3335 5.5143 -5.3584 -101.5858 -1.0169 -13.9810 -0.9617 -0.0933 6.8720 177.3404 -1.3436 178.3243 -102.0111 -1.8049 -11.3446 -0.9964 -0.2255 7.5499 103.4660 -5.7087
0.0000 0.0000 0.0000 0.0000 90.0000 90.0000 -4.4636 3.8699 4.7369 -4.8155 -2.3122 1.5617 -3.4151 3.2205 5.7871 8.6116 -4.8127 11.5751 -30.8732 -106.1241 -3.7761 15.3193 8.9006 0.4615 3.3472 173.0639 29.9682 -24.2055 -104.6141 -5.2968 16.2205 9.4109 0.5990 1.6453 174.0703 17.4621 -8.4145 59.6342 -2.6811 -25.7192 -1.1603 -0.6766 11.7744 178.3641 -4.0867 179.0616 58.3762 -5.4438 -26.4490 -1.2543 -0.8955 18.8068 -54.9868 -18.0056
0.0000 0.0000 0.0000 0.0000 90.0000 90.0000 -6.3430 5.4327 6.7314 -6.8431 -3.2857 2.2193 -4.8530 5.0790 8.2237 12.2375 -7.0736 16.4489 -43.8725 -112.8465 -5.3660 21.7696 12.6482 0.6558 4.7566 172.4781 42.5864 -110.1867 -110.8340 -7.5270 23.0502 13.3733 0.8512 2.3380 173.9084 24.8145 -10.2952 158.8465 -3.7052 -32.9427 -1.2826 -1.0356 14.7912 178.9940 -5.7747 179.5153 157.0760 -7.6831 -35.7441 -1.4131 -1.3077 25.7341 -152.4961 -25.5728
0.0000 0.0000 0.0000 0.0000 90.0000 90.0000 -7.2827 6.2141 7.7287 -7.8570 -3.7725 2.5481 -5.5720 6.0083 9.4421 14.0505 -8.2040 18.8857 -50.3721 -116.2077 -6.1610 24.9947 14.5220 0.7529 5.4613 172.1853 48.8955 -153.1774 -113.9440 -8.6421 26.4650 15.3545 0.9773 2.6844 173.8274 28.4907 -11.2355 208.4527 -4.2172 -36.5545 -1.3437 -1.2150 16.2997 179.3090 -6.6188 179.7421 206.4260 -8.8028 -40.3916 -1.4924 -1.5139 29.1978 -201.2508 -29.3565
0.0000 0.0000 0.0000 0.0000 90.0000 90.0000 -7.5177 6.4094 7.9780 -8.1104 -3.8942 2.6303 -5.7517 6.2406 9.7467 14.5037 -8.4866 19.4949 -51.9970 -117.0480 -6.3597 25.8010 14.9904 0.7772 5.6375 172.1121 50.4727 -163.9250 -114.7215 -8.9209 27.3187 15.8498 1.0088 2.7710 173.8072 29.4098 -11.4706 220.8542 -4.3453 -37.4574 -1.3590 -1.2599 16.6768 179.3877 -6.8298 179.7988 218.7634 -9.0827 -41.5535 -1.5123 -1.5654 30.0637 -213.4395 -30.3024
0.0000 0.0000 0.0000 0.0000 90.0000 90.0000 -7.2827 6.2141 7.7287 -7.8569 -3.7725 2.5481 -5.5720 6.0083 9.4421 14.0505 -8.2040 18.8857 -50.3721 -116.2077 -6.1610 24.9947 14.5220 0.7529 5.4613 172.1853 48.8955 -153.1774 -113.9440 -8.6421 26.4650 15.3545 0.9773 2.6844 173.8274 28.4907 -11.2355 208.4527 -4.2172 -36.5545 -1.3437 -1.2150 16.2997 179.3090 -6.6188 179.7421 206.4260 -8.8028 -40.3916 -1.4924 -1.5139 29.1978 -201.2508 -29.3565
0.0000 0.0000 0.0000 0.0000 90.0000 90.0000 -6.7189 5.7452 7.1303 -7.2487 -3.4805 2.3508 -5.1406 5.4507 8.7111 12.9627 -7.5257 17.4236 -46.4723 -114.1910 -5.6840 23.0596 13.3977 0.6946 5.0385 172.3610 45.1100 -127.3830 -112.0780 -7.9731 24.4161 14.1658 0.9017 2.4766 173.8760 26.2850 -10.6713 178.6890 -3.9100 -34.3874 -1.3070 -1.1074 15.3946 179.1200 -6.1124 179.6060 176.8160 -8.1310 -37.6031 -1.4448 -1.3902 27.1196 -171.9980 -27.0863
0.0000 0.0000 0.0000 0.0000 90.0000 90.0000 -6.7189 5.7452 7.1303 -7.2487 -3.4805 2.3508 -5.1406 5.4507 8.7111 12.9627 -7.5257 17.4236 -46.4723 -114.1910 -5.6840 23.0596 13.3977 0.6946 5.0385 172.3610 45.1100 -127.3830 -112.0780 -7.9731 24.4161 14.1658 0.9017 2.4766 173.8760 26.2850 -10.6713 178.6890 -3.9100 -34.3874 -1.3070 -1.1074 15.3946 179.1200 -6.1124 179.6060 176.8160 -8.1310 -37.6031 -1.4448 -1.3902 27.1196 -171.9980 -27.0863
0.0000 0.0000 0.0000 0.0000 90.0000 90.0000 -5.8718 6.2525 7.5588 -8.0136 -3.9114 2.4896 -6.3682 6.3358 9.7717 14.6153 -8.7217 19.3752 -48.4269 -115.5132 -8.5325 21.6084 12.5473 0.5204 5.7065 172.2284 50.5683 -149.7666 -114.4148 -10.5961 23.5162 13.6241 0.8545 2.5723 173.8366 27.7005 -8.8188 207.5787 -4.3512 -34.0209 -1.3537 -1.2587 14.7976 208.7961 -4.9328 182.2077 205.9626 -7.0827 -38.2390 -1.4966 -1.5536 26.9649 -171.3489 -29.1743
0.0000 0.0000 0.0000 0.0000 90.0000 90.0000 -6.2692 6.0809 7.5478 -8.2931 -3.8120 2.4869 -6.8655 6.2290 9.2957 12.8092 -8.1495 18.5937 -45.5745 -115.9581 -7.8153 20.4334 11.9749 -0.0043 15.0745 181.3036 54.3341 -141.6536 -114.9994 -9.6887 21.9508 12.8168 0.2712 4.5889 175.2019 34.0280 -11.0919 201.3429 -3.7450 -34.8848 -1.3417 -1.2099 14.2236 201.1516 -5.8019 180.1592 199.2896 -8.2405 -37.9116 -1.4838 -1.5176 27.7365 -201.5724 -29.3419
0.0000 0.0000 0.0000 0.0000 90.0000 90.0000 -7.2582 5.4721 7.0001 -7.2405 -3.2832 2.3092 -5.1641 5.1185 8.0522 11.1376 -6.7561 16.2818 -43.7765 -114.1482 -4.3351 22.5915 13.2105 0.3508 11.8743 179.2051 46.3802 -114.9251 -111.8511 -6.5456 23.4983 13.7146 0.4776 3.9618 174.9111 30.6276 -12.9036 165.7866 -3.3297 -35.1397 -1.2846 -1.0277 15.1340 164.9372 -7.1000 177.3289 163.5126 -9.2978 -37.1765 -1.4204 -1.3167 27.7423 -194.8504 -26.6175
0.0000 0.0000 0.0000 0.0000 90.0000 90.0000 -8.8766 4.5443 6.0160 -5.1186 -2.4604 1.9904 -1.8649 3.3141 6.3260 9.9706 -4.8268 12.9446 -43.1721 -110.9164 2.9712 26.8651 15.6266 1.1943 -4.5646 164.9397 29.7018 -75.8278 -105.7310 -0.1673 27.1011 15.7609 1.1546 0.5116 172.6275 18.8459 -14.2536 109.2097 -3.1551 -34.9241 -1.1951 -0.7502 17.1918 108.3359 -8.6440 174.0855 106.8995 -10.1484 -36.1430 -1.3217 -0.9974 27.1539 -159.3671 -21.7306
0.0000 0.0000 0.0000 0.0000 90.0000 90.0000 -10.4420 3.4491 4.8432 -2.4515 -1.4355 1.6088 2.5499 1.0215 4.2430 8.7098 -2.5527 8.9424 -43.0788 -106.2824 9.1449 33.2954 19.1587 2.7361 -23.5225 148.7856 7.1191 -28.2419 -98.0915 5.0562 32.7100 18.8677 2.4404 -3.4297 170.2971 2.9627 -15.1040 39.9092 -3.0600 -34.2926 -1.0869 -0.4182 19.9636 39.5233 -10.2993 170.6859 37.7143 -10.8937 -34.9871 -1.2004 -0.6068 26.1074 -103.2609 -15.5473
0.0000 0.0000 0.0000 0.0000 90.0000 90.0000 -11.8321 2.3120 3.6148 0.4397 -0.3344 1.2081 7.5058 -1.4726 2.0528 7.5101 -0.1982 4.7483 -43.4531 -100.8984 13.9107 40.9447 23.3045 4.7187 -43.1387 132.2543 -18.4117 22.1119 -89.8473 8.9269 39.4914 22.5827 4.1177 -7.4834 168.0903 -15.0236 -15.4463 -33.8158 -3.0473 -33.3651 -0.9727 -0.0706 23.0911 -33.3192 -11.8937 167.4742 -35.7759 -11.4736 -33.8330 -1.0711 -0.1916 24.7667 -34.7056 -8.8274
0.0000 0.0000 0.0000 0.0000 90.0000 90.0000 -12.9248 1.2586 2.4640 3.2342 0.7173 0.8319 12.4282 -3.8818 0.0052 6.5264 1.9724 0.8351 -44.2516 -95.4166 16.9934 48.8750 27.5616 6.8844 -61.5525 116.8572 -43.9344 69.5130 -81.9131 11.2467 46.6121 26.4534 5.9689 -11.2707 166.1776 -33.1144 -15.2718 -103.6660 -3.1196 -32.2614 -0.8653 0.2538 26.2156 -102.0103 -13.2548 164.7942 -105.3042 -11.8278 -32.8049 -0.9486 0.2015 23.2951 38.1247 -2.3308
0.0000 0.0000 0.0000 0.0000 90.0000 90.0000 -13.5979 0.4146 1.5239 5.6111 1.5938 0.5237 16.7426 -5.9196 -1.6503 5.9137 3.6947 -2.3242 -45.4309 -90.4892 18.1180 56.1485 31.4274 8.9757 -76.9035 104.1058 -66.4926 108.2406 -75.2036 11.8175 53.2383 30.0276 7.7764 -14.4128 164.7295 -49.3115 -14.5720 -161.3421 -3.2799 -31.1016 -0.7775 0.5164 28.9786 -158.3686 -14.2104 162.9897 -162.6033 -11.8962 -32.0269 -0.8474 0.5258 21.8564 107.0563 3.1824
0.0000 0.0000 0.0000 0.0000 90.0000 90.0000 -13.7293 -0.0943 0.9278 7.2495 2.1694 0.3271 19.8746 -7.2995 -2.6639 5.8269 4.7044 -4.2568 -46.9474 -86.7683 17.0092 61.8274 34.3998 10.7349 -87.3308 95.5116 -83.1302 132.5739 -70.6334 10.4413 58.5368 32.8528 9.3227 -16.5309 163.9164 -61.6164 -13.3383 -198.5450 -3.5309 -30.0054 -0.7220 0.6783 31.0216 -194.2128 -14.5883 162.4047 -199.4062 -11.6188 -31.6231 -0.7821 0.7345 20.6142 163.9151 6.9525
0.0000 0.0000 0.0000 0.0000 90.0000 90.0000 -13.1969 -0.1426 0.8087 7.8284 2.3184 0.2857 21.2496 -7.7350 -2.7860 6.4209 4.7371 -4.4897 -48.7579 -84.9061 13.3918 64.9736 35.9761 11.9044 -90.9740 92.5859 -90.8908 136.7923 -69.1172 6.9200 61.6739 34.4767 10.3904 -17.2461 163.9087 -68.0305 -11.5621 -206.9755 -3.8754 -29.0928 -0.7117 0.7008 31.9860 -201.3616 -14.2161 163.3829 -207.4458 -10.9353 -31.7179 -0.7674 0.7811 19.7320 200.5271 8.2194
0.0000 0.0000 0.0000 0.0000 90.0000 90.0000 -11.8784 0.3955 1.2999 7.0269 1.9151 0.4430 20.2930 -6.9395 -1.7667 7.8505 3.5285 -2.5500 -50.8188 -85.5549 6.9908 64.6494 35.6541 12.2267 -85.9724 96.8402 -86.8183 115.1750 -71.5697 1.0555 61.8162 34.4469 10.7619 -16.1797 164.8769 -66.5555 -9.2348 -178.3342 -4.3163 -28.4837 -0.7593 0.5451 31.5133 -171.6334 -12.9215 166.2682 -178.4551 -9.7855 -32.4352 -0.8178 0.6187 19.3734 208.7185 6.2233
0.0000 0.0000 0.0000 0.0000 90.0000 90.0000 -11.7930 0.3632 1.4513 6.4578 1.9230 0.4919 19.5335 -6.8641 -2.0375 6.0934 3.8371 -2.8979 -48.1460 -86.0245 4.7312 63.5852 35.0809 11.8845 -72.1539 110.1212 -81.7537 118.5821 -72.9986 -0.7197 60.4051 33.6804 10.3389 -13.1949 167.0908 -58.7711 -11.0306 -177.3487 -3.7411 -29.2244 -0.7594 0.5550 30.7539 -171.8617 -13.5140 164.8283 -177.8429 -10.7593 -32.2919 -0.8171 0.6138 20.0931 178.6746 5.4824
